# 六棱柱
# 顶点坐标（共12个顶点）
v 1.000000 0.000000 1.000000   # 上底面顶点1
v 0.500000 0.866025 1.000000   # 上底面顶点2
v -0.500000 0.866025 1.000000  # 上底面顶点3
v -1.000000 0.000000 1.000000  # 上底面顶点4
v -0.500000 -0.866025 1.000000 # 上底面顶点5
v 0.500000 -0.866025 1.000000  # 上底面顶点6
v 1.000000 0.000000 -1.000000  # 下底面顶点1
v 0.500000 0.866025 -1.000000  # 下底面顶点2
v -0.500000 0.866025 -1.000000 # 下底面顶点3
v -1.000000 0.000000 -1.000000 # 下底面顶点4
v -0.500000 -0.866025 -1.000000 # 下底面顶点5
v 0.500000 -0.866025 -1.000000 # 下底面顶点6

# 三角形面片（共16个面）
# 顶面（分成4个三角形）
f 1 2 6
f 2 3 6
f 3 5 6
f 3 4 5
# 底面（分成4个三角形）
f 7 12 8
f 8 12 9
f 9 12 11
f 9 11 10
# 侧面（6个矩形面，每个分成2个三角形）
f 1 7 2
f 7 8 2
f 2 8 3
f 8 9 3
f 3 9 4
f 9 10 4
f 4 10 5
f 10 11 5
f 5 11 6
f 11 12 6
f 6 12 1
f 12 7 1